<svg xmlns="http://www.w3.org/2000/svg" viewBox="2 8.05 27.92 15.47" width="100%" height="100%">
  <path fill="#3a4e55" d="M18.191,13.071H20.7v2.566H21.97a5.5,5.5,0,0,0,1.744-.292,4.462,4.462,0,0,0,.848-.383,3.149,3.149,0,0,1-.589-1.623,3.427,3.427,0,0,1,.616-2.416l.264-.305.314.253a4,4,0,0,1,1.575,2.538,3.837,3.837,0,0,1,2.913.271l.345.2-.181.354a3.629,3.629,0,0,1-3.648,1.74c-2.173,5.413-6.9,7.976-12.642,7.976A7.958,7.958,0,0,1,6.3,20.211l-.025-.043-.226-.459a7.28,7.28,0,0,1-.579-3.693l.035-.38H7.648V13.071h2.51v-2.51h5.02V8.051h3.012v5.02Z"/>
  
  <path fill="#00aada" d="M26.324,14.021A3.311,3.311,0,0,0,24.906,11.2a3.072,3.072,0,0,0,.289,3.821,5.279,5.279,0,0,1-3.225,1.037H5.883a6.779,6.779,0,0,0,.667,3.737l.183.335a6.2,6.2,0,0,0,.379.569h0q.992.064,1.829.045h0a8.972,8.972,0,0,0,2.669-.389.193.193,0,1,1,.126.365c-.09.031-.184.061-.281.088h0a8.4,8.4,0,0,1-1.845.3c.044,0-.046.007-.046.007l-.082.007c-.291.016-.6.02-.925.02-.351,0-.7-.007-1.083-.026l-.01.007a7.882,7.882,0,0,0,6.063,2.41c5.56,0,10.276-2.465,12.365-8,1.482.152,2.906-.226,3.553-1.49a3.5,3.5,0,0,0-3.122-.022"/>
  
  <path fill="#27b9ec" d="M26.324,14.021A3.311,3.311,0,0,0,24.906,11.2a3.072,3.072,0,0,0,.289,3.821,5.279,5.279,0,0,1-3.225,1.037H6.836a5.223,5.223,0,0,0,2.106,4.686h0a8.972,8.972,0,0,0,2.669-.389.193.193,0,1,1,.126.365c-.09.031-.184.061-.281.088h0a8.83,8.83,0,0,1-1.894.314L9.543,21.1c1.892.971,4.636.967,7.782-.241a21.868,21.868,0,0,0,9.1-6.889l-.1.048"/>

  <rect x="8.066" y="13.49" width="2.175" height="2.176" fill="#2496ed"/>
  <rect x="10.577" y="10.979" width="2.176" height="2.176" fill="#2496ed"/>
  <rect x="10.577" y="13.49" width="2.176" height="2.176" fill="#2496ed"/>
  <rect x="13.087" y="10.979" width="2.176" height="2.176" fill="#2496ed"/>
  <rect x="13.087" y="13.49" width="2.176" height="2.176" fill="#2496ed"/>
  <rect x="15.6" y="8.469" width="2.176" height="2.176" fill="#2496ed"/>
  <rect x="15.6" y="10.979" width="2.176" height="2.176" fill="#2496ed"/>
  <rect x="15.6" y="13.49" width="2.176" height="2.176" fill="#2496ed"/>
  <rect x="18.107" y="13.49" width="2.175" height="2.176" fill="#2496ed"/>
</svg>
