<svg viewBox="1 1 254 254" xmlns="http://www.w3.org/2000/svg" width="100%" height="100%">
  <g id="postman-logo">
    <path d="M254.95 144.25c8.96-70.13-40.57-134.25-110.57-143.21C74.38-7.91 10 41.62 1.05 111.62-7.91 181.62 41.62 245.87 111.62 254.95c70.13 8.96 134.25-40.57 143.33-110.7z" fill="#FF6C37"/>
    
    <g transform="translate(50.18 45.2)">
      <path d="M124.02 36.99L70.01 90.99l-15.23-15.23c53.11-53.11 58.36-48.5 69.24-38.77z" fill="#FFFFFF"/>
      <path d="M85.5 106.48L70.78 91.76l54.01-54.01c14.46 14.59-7.17 38.27-39.29 68.73z" fill="#FFFFFF"/>
      <path d="M55.04 76.15l10.88 10.88c.25.25.25.51 0 .76l-22.78 4.86c-1.15.13-2.18-.64-2.43-1.79-.13-.64.13-1.28.51-1.66l13.06-13.05c.25-.26.63-.39.76-.14z" fill="#FFFFFF"/>
      <path d="M152.56 7.04c-8.19-7.93-21.37-7.68-29.3 0.64-7.94 8.32-7.68 21.37.64 29.3 6.78 6.53 17.02 7.68 25.08 2.83l-14.59-14.59 18.17-18.18z" fill="#FFFFFF"/>
      <path d="M126.19 39.29c-3.07-3.07-8.06-3.07-11.13 0L66.81 87.54l8.06 8.06 51.06-44.79c3.33-2.82 3.58-7.81.77-11.14-.26-.13-.39-.26-.51-.38z" fill="#FFFFFF"/>
      <path d="M29.83 142.44c-.51.26-.77.77-.64 1.28l2.18 9.21c.51 1.28-.26 2.82-1.66 3.2-.14 0-.27 0-.41 0-1.03.38-2.18 0-2.82-.77L12.81 141.41l45.94-45.94 15.87.26 10.75 10.75c-2.56 2.18-18.05 17.15-55.54 35.96z" fill="#FFFFFF"/>
      <path d="M1.93 152.42l11-11 16.39 16.39-26.11-1.79c-1.15-.13-1.92-1.15-1.79-2.3 0-.51.13-1.02.51-1.3z" fill="#FFFFFF"/>
      <path d="M74.62 95.73l-14.08 3.07c-1.02.26-2.04-.38-2.3-1.4-.13-.64 0-1.28.51-1.79l7.81-7.81 8.06 7.93z" fill="#FFFFFF"/>
    </g>
  </g>
</svg>
